<svg width="927" height="833" viewBox="0 0 927 833" fill="none" xmlns="http://www.w3.org/2000/svg">
<g filter="url(#filter0_d_1882_9504)">
<path fill-rule="evenodd" clip-rule="evenodd" d="M522.827 11.9815C639.733 -6.819 764.514 42.3155 843.215 130.777C918.762 215.694 927.356 338.329 913.529 451.14C901.428 549.858 851.961 640.737 773.254 701.547C703.151 755.709 610.178 738.231 522.827 752.998C401.216 773.557 276.572 866.361 170.493 803.445C55.577 735.289 -13.1739 581.972 13.8763 451.14C39.2258 328.533 196.422 301.343 291.216 219.548C372.811 149.142 416.418 29.0937 522.827 11.9815Z" fill="url(#paint0_linear_1882_9504)" shape-rendering="crispEdges"/>
</g>
<defs>
<filter id="filter0_d_1882_9504" x="0" y="0" width="927" height="833" filterUnits="userSpaceOnUse" color-interpolation-filters="sRGB">
<feFlood flood-opacity="0" result="BackgroundImageFix"/>
<feColorMatrix in="SourceAlpha" type="matrix" values="0 0 0 0 0 0 0 0 0 0 0 0 0 0 0 0 0 0 127 0" result="hardAlpha"/>
<feMorphology radius="2" operator="dilate" in="SourceAlpha" result="effect1_dropShadow_1882_9504"/>
<feOffset/>
<feGaussianBlur stdDeviation="3"/>
<feComposite in2="hardAlpha" operator="out"/>
<feColorMatrix type="matrix" values="0 0 0 0 0.649167 0 0 0 0 0.854167 0 0 0 0 0.128125 0 0 0 0.81 0"/>
<feBlend mode="normal" in2="BackgroundImageFix" result="effect1_dropShadow_1882_9504"/>
<feBlend mode="normal" in="SourceGraphic" in2="effect1_dropShadow_1882_9504" result="shape"/>
</filter>
<linearGradient id="paint0_linear_1882_9504" x1="799.132" y1="1129.64" x2="-429.027" y2="803.137" gradientUnits="userSpaceOnUse">
<stop stop-color="#85B50B"/>
<stop offset="0.315568" stop-color="#A6DA21"/>
<stop offset="0.85268" stop-color="#FEF600" stop-opacity="0.91"/>
</linearGradient>
</defs>
</svg>
