<svg width="160" height="160" viewBox="0 0 160 160" fill="none" xmlns="http://www.w3.org/2000/svg">
<g clip-path="url(#clip0_805_7316)">
<g filter="url(#filter0_d_805_7316)">
<path d="M159.449 49.8521L157.487 44.5684L152.543 44.2073L149.127 41.1676L147.745 40.5164L138.949 33.4955L136.478 34.5079L132.262 33.9275L129.572 33.4929L126.52 31.7557L122.013 32.1904L120.996 30.7434L118.743 28.6452L111.62 24.7376L108.93 24.4474L106.823 24.5919L105.152 25.3166L103.699 27.8508L101.154 31.1806L100.209 32.7733V29.1532L96.2822 30.021L94.1014 25.8234L89.2318 28.3576L89.8146 26.5482L91.4141 24.8846L91.6316 22.7864L94.5391 20.977L96.2097 19.0942L98.4631 17.5737V15.0395L96.5011 13.8079L95.3381 12.5763L93.5211 4.90434L91.3403 3.89201L88.9418 7.07742L85.9605 12.5776H79.6381L77.2397 11.7097H74.1147L72.3702 12.5776L73.1693 14.0981L66.9903 13.8079L61.5382 16.9933C61.5382 16.9933 56.8138 12.7956 56.8138 11.8541C56.8138 10.9126 57.3966 7.00505 57.3966 7.00505L58.1245 4.25558L56.38 3.8945V0.198364H53.6861L52.2331 3.52818L47.5087 5.19178L45.5467 5.04734L44.5301 7.43575L41.3312 5.6264L39.6606 6.13323L36.8995 5.40845L38.7165 9.89652L40.6073 12.7195L42.4982 13.5152L39.7371 14.7468L39.3745 16.0494L34.5775 19.0181H29.9257L26.7994 16.4839L25.854 13.8054L23.0191 14.8177L21.2021 15.0343L18.5122 15.6147H16.1849L15.3859 18.2933L18.9474 19.4514L18.002 20.6095L15.386 20.9705L14.5869 23.2145L16.7678 25.2418L17.6394 28.2815L15.8949 40.3705L13.205 40.0095L10.9516 41.3855L6.95359 41.7466L4.04614 44.6418V47.8981L2.80405 49.5631L2.36759 51.0835L0.0429688 52.8929L0.479424 55.4979L4.11487 59.6233L4.18607 61.216L3.82215 63.1724L8.11144 63.7528L10.1473 65.2732L13.5637 62.3045L13.9263 67.6618L15.7432 68.2422L17.7053 67.0841L22.8661 68.7477L24.7569 65.708L32.2439 62.1615L35.0049 62.5226L35.3675 64.8374L35.8765 66.2844L35.44 69.0338L37.4759 71.0611L40.0919 72.8705H42.3454L45.0353 74.2466L47.3599 75.767H49.2507L50.4875 76.9987L54.848 77.6499L56.5925 80.9797L55.1395 83.2946L56.5925 85.3928V87.2757L64.2968 88.0714L64.0054 89.5919V91.6901L66.9129 92.776L67.0579 94.6589L66.3314 98.3496C66.3314 98.3496 65.0234 100.664 65.0234 101.099C65.0234 101.534 65.3148 103.704 65.3148 103.704L66.4052 107.178L66.334 110.435L66.988 111.303L69.9693 111.809L72.2939 111.229L75.2752 113.038L75.3464 115.066L76.0742 118.034L77.0909 118.83H79.6357L80.3635 120.423L79.4181 124.333L80.0721 125.926H81.5252L82.6881 128.675L82.2477 132.222L77.8174 133.598L72.6565 138.882L68.2221 144.526L68.6585 145.178L71.057 144.671L71.7835 144.09L74.3996 146.334V147.855H76.653L80.651 150.315L82.2465 151.691L83.4134 153.574L84.2124 154.298L82.7594 157.267L83.7799 159.802L85.8158 157.341L87.6328 152.637L90.1037 146.122L93.3026 144.239L93.8116 145.541L89.5223 151.041L95.3373 146.048L96.8642 141.923L99.3352 139.318L101.806 136.495V132.73L100.79 130.993L101.806 124.697L109.728 119.631L118.669 116.808V114.564L123.975 114.419L128.772 113.478L131.388 112.32V109.063L133.133 107.18L135.604 105.009V103.777L137.495 102.619V97.8421L139.602 95.0927V93.7901L142 87.4207L141.129 82.2816L141.638 79.0253L142 75.115L143.817 75.4052L146.507 73.3779L149.123 69.7577L153.338 66.2835L154.938 64.1852L159.518 58.756L159.955 56.0065L159.449 49.8521ZM155.944 57.1341L152.041 61.7613C152.002 61.8086 151.962 61.8572 151.924 61.9084L150.589 63.6586L146.71 66.8545C146.461 67.0594 146.24 67.2944 146.052 67.557L143.769 70.7161L142.822 71.4291L142.6 71.3936C142.401 71.3621 142.202 71.3464 142.002 71.3464C141.166 71.3464 140.35 71.6208 139.681 72.1394C138.853 72.7789 138.328 73.7322 138.231 74.7707L137.879 78.564L137.387 81.7061C137.325 82.1066 137.326 82.5136 137.395 82.9141L138.097 87.0516L136.058 92.4704C135.899 92.8945 135.815 93.3423 135.815 93.7939V93.8228L134.485 95.56C133.982 96.2165 133.708 97.0201 133.708 97.8473V100.518L133.621 100.573C132.645 101.172 132 102.171 131.851 103.283L130.628 104.359C130.531 104.444 130.439 104.533 130.349 104.628L128.605 106.511C127.959 107.206 127.602 108.12 127.602 109.068V109.871L123.555 110.665L118.564 110.8C116.695 110.851 115.172 112.246 114.918 114.042L108.582 116.043C108.265 116.143 107.96 116.286 107.681 116.465L99.7585 121.532C98.8527 122.112 98.2369 123.047 98.0668 124.105L97.0502 130.401C96.9105 131.263 97.0766 132.146 97.517 132.898L98.0181 133.754V135.086L96.5281 136.787L94.1085 139.339C93.7947 139.669 93.5428 140.054 93.3675 140.473H93.2989C92.6277 140.473 91.9619 140.65 91.3725 140.998L88.1736 142.881C87.4326 143.318 86.8617 143.992 86.5571 144.796L84.9405 149.054C84.8706 148.984 84.7981 148.914 84.7229 148.85L83.1274 147.474C82.9745 147.343 82.8123 147.223 82.6396 147.118L78.6416 144.658C78.2895 144.441 77.9058 144.285 77.505 144.19C77.3257 143.933 77.1121 143.695 76.8681 143.486L75.063 141.94L75.5087 141.371L79.856 136.92L83.3686 135.83C84.7887 135.39 85.8185 134.163 86.0005 132.692L86.4409 129.146C86.5226 128.493 86.429 127.827 86.1719 127.219L85.0089 124.47C84.7241 123.792 84.2534 123.232 83.6706 122.83L84.0371 121.315C84.2362 120.498 84.1518 119.638 83.8024 118.871L83.0746 117.278C82.4601 115.933 81.1126 115.069 79.6265 115.069L79.2441 115.067L79.1189 114.555L79.0608 112.914C79.016 111.647 78.3343 110.49 77.2478 109.828L74.2665 108.019C73.6679 107.655 72.9849 107.468 72.2953 107.468C71.9894 107.468 71.6795 107.506 71.3762 107.58L70.1803 107.878L70.1935 107.269C70.2027 106.861 70.1447 106.453 70.0221 106.061L69.0292 102.897C68.9725 102.468 68.9158 102.003 68.8736 101.635C69.0727 101.235 69.3654 100.679 69.6357 100.203C69.8322 99.8519 69.9746 99.4738 70.0511 99.0812L70.7776 95.3905C70.8435 95.057 70.8633 94.7143 70.8382 94.3755L70.6932 92.4926C70.5798 91.0299 69.6265 89.7655 68.2473 89.2508L67.9519 89.1392L68.0205 88.782C68.2196 87.7447 67.9717 86.672 67.3375 85.8264C66.7045 84.9795 65.7433 84.4359 64.6911 84.3256L60.0471 83.845C59.9548 83.6402 59.8427 83.4446 59.7122 83.2555L59.67 83.1951L59.8058 82.9785C60.5165 81.8453 60.5732 80.4207 59.9508 79.2363L58.2063 75.9064C57.6473 74.8376 56.6069 74.101 55.411 73.9225L52.282 73.4551L51.9287 73.1032C51.2179 72.3954 50.2554 71.9976 49.2507 71.9976H48.4925L47.112 71.0955C46.9999 71.022 46.8838 70.9537 46.7639 70.8946L44.074 69.5186C43.5387 69.2455 42.9453 69.1023 42.344 69.1023H41.276L39.9112 68.1596L39.4788 67.7289L39.6146 66.8741C39.7135 66.2583 39.6541 65.6281 39.4484 65.0412L39.0529 63.9172L38.743 61.9411C38.4846 60.288 37.1607 59.0025 35.4954 58.7846L32.7343 58.4235C32.5695 58.4025 32.406 58.392 32.2412 58.392C31.6794 58.392 31.1243 58.5167 30.6141 58.757L23.1271 62.3036C22.4692 62.6147 21.9167 63.1071 21.533 63.7243L21.206 64.2508L18.8695 63.4984C18.4897 63.3763 18.0941 63.3159 17.7026 63.3159C17.6103 63.3159 17.5153 63.3198 17.423 63.3251L17.336 62.0541C17.2397 60.6255 16.3365 59.3742 15.0074 58.8254C14.538 58.631 14.0475 58.5378 13.557 58.5378C12.6577 58.5378 11.769 58.8582 11.0675 59.4674L9.93093 60.4535C9.52218 60.229 9.07651 60.0832 8.6137 60.0202L7.91091 59.9257L7.88981 59.4608C7.85026 58.6061 7.5206 57.7893 6.95365 57.146L4.422 54.2731L4.69231 54.0617C5.3239 53.5706 5.78277 52.8931 6.00164 52.1263L6.24953 51.2623L7.07758 50.1463C7.56018 49.4963 7.81861 48.7124 7.81861 47.9049V46.2085L8.64798 45.3826L11.2812 45.1436C11.8613 45.0911 12.4204 44.906 12.9162 44.604L14.0198 43.9304L15.3727 44.1129C15.5441 44.1352 15.7142 44.147 15.8856 44.147C17.7395 44.147 19.3587 42.7893 19.629 40.9117L21.3735 28.8227C21.4487 28.2974 21.4131 27.7604 21.2654 27.251L20.3938 24.2113C20.3411 24.0288 20.2752 23.8502 20.1974 23.6782C20.4677 23.4839 20.7156 23.2541 20.9292 22.9928L21.8746 21.8347C22.6011 20.9445 22.878 19.7772 22.638 18.6664L23.4569 18.5679C23.5083 18.5627 23.561 18.5548 23.6125 18.5456C23.8261 18.8712 24.0885 19.1654 24.3957 19.4135L27.522 21.9476C28.1971 22.4952 29.0423 22.7945 29.9139 22.7945H34.5657C35.2724 22.7945 35.9647 22.5989 36.5633 22.226L41.3603 19.2573C42.0407 18.8358 42.5668 18.2147 42.8674 17.4821L44.0356 16.9621C45.4122 16.3489 46.2904 14.9821 46.2759 13.4814C46.2666 12.5951 45.9475 11.7627 45.4003 11.1075C45.5137 11.0812 45.6271 11.0497 45.7392 11.009C46.7545 10.6663 47.5759 9.91131 48.0018 8.93047C48.2629 8.89633 48.52 8.83462 48.7692 8.74796L53.4936 7.08436C53.5147 7.07648 53.5358 7.06992 53.5556 7.06204C53.3248 8.65606 53.0229 10.9209 53.0229 11.8546C53.0229 13.0876 53.0229 14.4846 59.0131 19.8076C59.7238 20.4405 60.627 20.7661 61.5342 20.7661C62.1922 20.7661 62.8541 20.5954 63.4488 20.2488L67.9305 17.6306L72.9846 17.8682C73.0453 17.8696 73.1033 17.8722 73.1627 17.8722C74.4522 17.8722 75.6574 17.217 76.3549 16.1285C76.4801 15.9342 76.583 15.7319 76.67 15.5205L78.3367 16.1245C78.7507 16.2755 79.1898 16.3517 79.6315 16.3517H85.9539C87.345 16.3517 88.6253 15.5915 89.2859 14.3717L91.0791 11.0602L91.6448 13.4447C91.7978 14.0881 92.1168 14.6815 92.5731 15.1634L93.653 16.3057C93.5528 16.3963 93.4565 16.4935 93.3682 16.5959L92.0602 18.0678L89.6182 19.587C88.6279 20.2028 87.9792 21.2401 87.8579 22.3969L87.7722 23.2123L87.0694 23.9423C86.6725 24.3559 86.3732 24.8548 86.2005 25.3998L85.6176 27.2091C85.1482 28.6666 85.6124 30.2579 86.7859 31.2427C87.4834 31.8283 88.351 32.1277 89.2239 32.1277C89.8212 32.1277 90.4238 31.9859 90.9763 31.6983L92.4768 30.9171L92.912 31.7535C93.5712 33.0245 94.8819 33.7926 96.2743 33.7926C96.3666 33.7926 96.4589 33.7887 96.5525 33.7834C96.9019 35.0387 97.8922 36.0537 99.2028 36.4095C99.5338 36.5001 99.87 36.5434 100.201 36.5434C101.514 36.5434 102.768 35.858 103.462 34.6908L104.294 33.2884L106.704 30.1332C106.804 30.0019 106.897 29.8641 106.978 29.7209L107.791 28.3055L108.851 28.232L110.451 28.4053L116.494 31.722L118.115 33.2294L118.907 34.3546C119.619 35.3696 120.781 35.9618 122.01 35.9618C122.131 35.9618 122.254 35.9565 122.375 35.9447L125.683 35.6269L127.69 36.7693C128.083 36.9938 128.514 37.1461 128.963 37.217L131.653 37.6516C131.683 37.6569 131.711 37.6608 131.741 37.6647L135.956 38.2451C136.128 38.2701 136.302 38.2806 136.475 38.2806C136.968 38.2806 137.457 38.1847 137.917 37.997L138.322 37.8315L145.372 43.4591C145.603 43.6429 145.852 43.7991 146.119 43.9239L147.005 44.3414L150.014 47.0187C150.637 47.5741 151.426 47.9076 152.259 47.968L154.774 48.1518L155.711 50.6781L156.14 55.866L155.944 57.1341Z" fill="#5F5F59"/>
<path d="M155.944 57.1341L152.041 61.7613C152.002 61.8086 151.962 61.8572 151.924 61.9084L150.589 63.6586L146.71 66.8545C146.461 67.0594 146.24 67.2944 146.052 67.557L143.769 70.7161L142.822 71.4291L142.6 71.3936C142.401 71.3621 142.202 71.3464 142.002 71.3464C141.166 71.3464 140.35 71.6208 139.681 72.1394C138.853 72.7789 138.328 73.7322 138.231 74.7707L137.879 78.564L137.387 81.7061C137.325 82.1066 137.326 82.5136 137.395 82.9141L138.097 87.0516L136.058 92.4704C135.899 92.8945 135.815 93.3423 135.815 93.7939V93.8228L134.485 95.56C133.982 96.2165 133.708 97.0201 133.708 97.8473V100.518L133.621 100.573C132.645 101.172 132 102.171 131.851 103.283L130.628 104.359C130.531 104.444 130.439 104.533 130.349 104.628L128.605 106.511C127.959 107.206 127.602 108.12 127.602 109.068V109.871L123.555 110.665L118.564 110.8C116.695 110.851 115.172 112.246 114.918 114.042L108.582 116.043C108.265 116.143 107.96 116.286 107.681 116.465L99.7585 121.532C98.8527 122.112 98.2369 123.047 98.0668 124.105L97.0502 130.401C96.9105 131.263 97.0766 132.146 97.517 132.898L98.0181 133.754V135.086L96.5281 136.787L94.1085 139.339C93.7947 139.669 93.5428 140.054 93.3675 140.473H93.2989C92.6277 140.473 91.9619 140.65 91.3725 140.998L88.1736 142.881C87.4326 143.318 86.8617 143.992 86.5571 144.796L84.9405 149.054C84.8706 148.984 84.7981 148.914 84.7229 148.85L83.1274 147.474C82.9745 147.343 82.8123 147.223 82.6396 147.118L78.6416 144.658C78.2895 144.441 77.9058 144.285 77.505 144.19C77.3257 143.933 77.1121 143.695 76.8681 143.486L75.063 141.94L75.5087 141.371L79.856 136.92L83.3686 135.83C84.7887 135.39 85.8185 134.163 86.0005 132.692L86.4409 129.146C86.5226 128.493 86.429 127.827 86.1719 127.219L85.0089 124.47C84.7241 123.792 84.2534 123.232 83.6706 122.83L84.0371 121.315C84.2362 120.498 84.1518 119.638 83.8024 118.871L83.0746 117.278C82.4601 115.933 81.1126 115.069 79.6265 115.069L79.2441 115.067L79.1189 114.555L79.0608 112.914C79.016 111.647 78.3343 110.49 77.2478 109.828L74.2665 108.019C73.6679 107.655 72.9849 107.468 72.2953 107.468C71.9894 107.468 71.6795 107.506 71.3762 107.58L70.1803 107.878L70.1935 107.269C70.2027 106.861 70.1447 106.453 70.0221 106.061L69.0292 102.897C68.9725 102.468 68.9158 102.003 68.8736 101.635C69.0727 101.235 69.3654 100.679 69.6357 100.203C69.8322 99.8519 69.9746 99.4738 70.0511 99.0812L70.7776 95.3905C70.8435 95.057 70.8633 94.7143 70.8382 94.3755L70.6932 92.4926C70.5798 91.0299 69.6265 89.7655 68.2473 89.2508L67.9519 89.1392L68.0205 88.782C68.2196 87.7447 67.9717 86.672 67.3375 85.8264C66.7045 84.9795 65.7433 84.4359 64.6911 84.3256L60.0471 83.845C59.9548 83.6402 59.8427 83.4446 59.7122 83.2555L59.67 83.1951L59.8058 82.9785C60.5165 81.8453 60.5732 80.4207 59.9508 79.2363L58.2063 75.9064C57.6473 74.8376 56.6069 74.101 55.411 73.9225L52.282 73.4551L51.9287 73.1032C51.2179 72.3954 50.2554 71.9976 49.2507 71.9976H48.4925L47.112 71.0955C46.9999 71.022 46.8838 70.9537 46.7639 70.8946L44.074 69.5186C43.5387 69.2455 42.9453 69.1023 42.344 69.1023H41.276L39.9112 68.1596L39.4788 67.7289L39.6146 66.8741C39.7135 66.2583 39.6541 65.6281 39.4484 65.0412L39.0529 63.9172L38.743 61.9411C38.4846 60.288 37.1607 59.0025 35.4954 58.7846L32.7343 58.4235C32.5695 58.4025 32.406 58.392 32.2412 58.392C31.6794 58.392 31.1243 58.5167 30.6141 58.757L23.1271 62.3036C22.4692 62.6147 21.9167 63.1071 21.533 63.7243L21.206 64.2508L18.8695 63.4984C18.4897 63.3763 18.0941 63.3159 17.7026 63.3159C17.6103 63.3159 17.5153 63.3198 17.423 63.3251L17.336 62.0541C17.2397 60.6255 16.3365 59.3742 15.0074 58.8254C14.538 58.631 14.0475 58.5378 13.557 58.5378C12.6577 58.5378 11.769 58.8582 11.0675 59.4674L9.93093 60.4535C9.52218 60.229 9.07651 60.0832 8.6137 60.0202L7.91091 59.9257L7.88981 59.4608C7.85026 58.6061 7.5206 57.7893 6.95365 57.146L4.422 54.2731L4.69231 54.0617C5.3239 53.5706 5.78277 52.8931 6.00164 52.1263L6.24953 51.2623L7.07758 50.1463C7.56018 49.4963 7.81861 48.7124 7.81861 47.9049V46.2085L8.64798 45.3826L11.2812 45.1436C11.8613 45.0911 12.4204 44.906 12.9162 44.604L14.0198 43.9304L15.3727 44.1129C15.5441 44.1352 15.7142 44.147 15.8856 44.147C17.7395 44.147 19.3587 42.7893 19.629 40.9117L21.3735 28.8227C21.4487 28.2974 21.4131 27.7604 21.2654 27.251L20.3938 24.2113C20.3411 24.0288 20.2752 23.8502 20.1974 23.6782C20.4677 23.4839 20.7156 23.2541 20.9292 22.9928L21.8746 21.8347C22.6011 20.9445 22.878 19.7772 22.638 18.6664L23.4569 18.5679C23.5083 18.5627 23.561 18.5548 23.6125 18.5456C23.8261 18.8712 24.0885 19.1654 24.3957 19.4135L27.522 21.9476C28.1971 22.4952 29.0423 22.7945 29.9139 22.7945H34.5657C35.2724 22.7945 35.9647 22.5989 36.5633 22.226L41.3603 19.2573C42.0407 18.8358 42.5668 18.2147 42.8674 17.4821L44.0356 16.9621C45.4122 16.3489 46.2904 14.9821 46.2759 13.4814C46.2666 12.5951 45.9475 11.7627 45.4003 11.1075C45.5137 11.0812 45.6271 11.0497 45.7392 11.009C46.7545 10.6663 47.5759 9.91131 48.0018 8.93047C48.2629 8.89633 48.52 8.83462 48.7692 8.74796L53.4936 7.08436C53.5147 7.07648 53.5358 7.06992 53.5556 7.06204C53.3248 8.65606 53.0229 10.9209 53.0229 11.8546C53.0229 13.0876 53.0229 14.4846 59.0131 19.8076C59.7238 20.4405 60.627 20.7661 61.5342 20.7661C62.1922 20.7661 62.8541 20.5954 63.4488 20.2488L67.9305 17.6306L72.9846 17.8682C73.0453 17.8696 73.1033 17.8722 73.1627 17.8722C74.4522 17.8722 75.6574 17.217 76.3549 16.1285C76.4801 15.9342 76.583 15.7319 76.67 15.5205L78.3367 16.1245C78.7507 16.2755 79.1898 16.3517 79.6315 16.3517H85.9539C87.345 16.3517 88.6253 15.5915 89.2859 14.3717L91.0791 11.0602L91.6448 13.4447C91.7978 14.0881 92.1168 14.6815 92.5731 15.1634L93.653 16.3057C93.5528 16.3963 93.4565 16.4935 93.3682 16.5959L92.0602 18.0678L89.6182 19.587C88.6279 20.2028 87.9792 21.2401 87.8579 22.3969L87.7722 23.2123L87.0694 23.9423C86.6725 24.3559 86.3732 24.8548 86.2005 25.3998L85.6176 27.2091C85.1482 28.6666 85.6124 30.2579 86.7859 31.2427C87.4834 31.8283 88.351 32.1277 89.2239 32.1277C89.8212 32.1277 90.4238 31.9859 90.9763 31.6983L92.4768 30.9171L92.912 31.7535C93.5712 33.0245 94.8819 33.7926 96.2743 33.7926C96.3666 33.7926 96.4589 33.7887 96.5525 33.7834C96.9019 35.0387 97.8922 36.0537 99.2028 36.4095C99.5338 36.5001 99.87 36.5434 100.201 36.5434C101.514 36.5434 102.768 35.858 103.462 34.6908L104.294 33.2884L106.704 30.1332C106.804 30.0019 106.897 29.8641 106.978 29.7209L107.791 28.3055L108.851 28.232L110.451 28.4053L116.494 31.722L118.115 33.2294L118.907 34.3546C119.619 35.3696 120.781 35.9618 122.01 35.9618C122.131 35.9618 122.254 35.9565 122.375 35.9447L125.683 35.6269L127.69 36.7693C128.083 36.9938 128.514 37.1461 128.963 37.217L131.653 37.6516C131.683 37.6569 131.711 37.6608 131.741 37.6647L135.956 38.2451C136.128 38.2701 136.302 38.2806 136.475 38.2806C136.968 38.2806 137.457 38.1847 137.917 37.997L138.322 37.8315L145.372 43.4591C145.603 43.6429 145.852 43.7991 146.119 43.9239L147.005 44.3414L150.014 47.0187C150.637 47.5741 151.426 47.9076 152.259 47.968L154.774 48.1518L155.711 50.6781L156.14 55.866L155.944 57.1341Z" fill="#5F5F59"/>
</g>
<path d="M96.3935 22.2151L95.6445 23.1106V24.5418L96.8405 27.8493L99.8046 27.2243L102.05 26.9249L103.667 24.0638V22.3937L99.6555 22.2151L97.9783 22.5145L96.3935 22.2151Z" fill="#5F5F59"/>
</g>
<defs>
<filter id="filter0_d_805_7316" x="-5.95703" y="-1.80164" width="171.91" height="171.604" filterUnits="userSpaceOnUse" color-interpolation-filters="sRGB">
<feFlood flood-opacity="0" result="BackgroundImageFix"/>
<feColorMatrix in="SourceAlpha" type="matrix" values="0 0 0 0 0 0 0 0 0 0 0 0 0 0 0 0 0 0 127 0" result="hardAlpha"/>
<feMorphology radius="2" operator="dilate" in="SourceAlpha" result="effect1_dropShadow_805_7316"/>
<feOffset dy="4"/>
<feGaussianBlur stdDeviation="2"/>
<feComposite in2="hardAlpha" operator="out"/>
<feColorMatrix type="matrix" values="0 0 0 0 0 0 0 0 0 0 0 0 0 0 0 0 0 0 0.1 0"/>
<feBlend mode="normal" in2="BackgroundImageFix" result="effect1_dropShadow_805_7316"/>
<feBlend mode="normal" in="SourceGraphic" in2="effect1_dropShadow_805_7316" result="shape"/>
</filter>
<clipPath id="clip0_805_7316">
<rect width="160" height="160" fill="white"/>
</clipPath>
</defs>
</svg>
