<svg width="80" height="80" viewBox="0 0 80 80" fill="none" xmlns="http://www.w3.org/2000/svg">
<path d="M29.9984 75H22.4984V70H29.9984V38.915L21.2109 33.6425L23.7859 29.3575L32.5709 34.6275C33.3095 35.0738 33.9208 35.7026 34.3459 36.4535C34.7711 37.2044 34.9958 38.0521 34.9984 38.915V70C34.9971 71.3257 34.4699 72.5967 33.5325 73.5341C32.5951 74.4715 31.3241 74.9987 29.9984 75Z" fill="#85B50B"/>
<path d="M55 75H47.5C46.1743 74.9987 44.9033 74.4715 43.9659 73.5341C43.0285 72.5967 42.5013 71.3257 42.5 70V42.5H57.5C58.8968 42.5002 60.2782 42.2078 61.5552 41.6416C62.8321 41.0754 63.9763 40.2479 64.9139 39.2125C65.8515 38.1772 66.5619 36.9568 66.9991 35.6302C67.4363 34.3035 67.5908 32.9 67.4525 31.51C67.1179 28.981 65.8631 26.6641 63.928 25.0019C61.9928 23.3398 59.513 22.4491 56.9625 22.5H53.005L52.5625 20.5525C51.13 14.24 45.0775 10 37.5 10C34.6388 10.0094 31.8395 10.8342 29.4303 12.3777C27.0211 13.9213 25.1019 16.1196 23.8975 18.715L23.125 20.3825L20.9675 20.0975C20.6477 20.0424 20.3244 20.0098 20 20C17.3478 20 14.8043 21.0536 12.9289 22.9289C11.0536 24.8043 10 27.3478 10 30C10 32.6522 11.0536 35.1957 12.9289 37.0711C14.8043 38.9464 17.3478 40 20 40V45C16.0218 45 12.2064 43.4197 9.3934 40.6066C6.58035 37.7936 5 33.9782 5 30C5 26.0218 6.58035 22.2064 9.3934 19.3934C12.2064 16.5804 16.0218 15 20 15L20.1975 15.0025C21.9562 11.9689 24.4792 9.44904 27.515 7.69406C30.5508 5.93908 33.9934 5.01021 37.5 5C46.6975 5 54.23 9.945 56.88 17.5H56.9625C60.7543 17.4577 64.4286 18.815 67.2823 21.3122C70.1361 23.8094 71.9688 27.2711 72.43 31.035C72.6341 33.1184 72.3999 35.2215 71.7424 37.209C71.085 39.1965 70.0189 41.0244 68.6127 42.5752C67.2065 44.1259 65.4913 45.3653 63.5775 46.2134C61.6636 47.0616 59.5934 47.4999 57.5 47.5H47.5V70H55V75Z" fill="#85B50B"/>
</svg>
