<svg width="41" height="58" viewBox="0 0 41 58" fill="none" xmlns="http://www.w3.org/2000/svg">
<path d="M5.15202 7.87079C5.19273 7.56678 5.35963 6.6304 5.70156 5.31705H7.22804L8.3271 5.43865L10.0368 5.86428L11.5632 6.35071L12.9065 6.89794L14.1888 7.50597L15.3489 8.35722L15.6542 7.50597L15.9595 6.65472L16.7533 5.43865L17.4249 4.34419L18.1576 3.31053L19.0735 2.45928L19.8062 1.66884L20.5389 1L21.3938 1.66884L22.1875 2.45928L22.9202 3.31053L23.7751 4.34419L24.3857 5.43865L24.9963 6.65472L25.79 8.35722L26.2785 7.9316L27.2554 7.32356L28.2935 6.77633L29.7589 6.10749L31.4685 5.62106L33.5445 5.19544H35.2542L35.7427 6.53312L36.048 7.9316L36.1701 9.93811L36.048 11.9446L35.7427 13.6471L35.4374 15.1064L36.7807 16.6873L37.6966 18.1466L38.4293 19.6667L39.0399 21.0651L39.6505 23.1933L40.0168 25.139L40.2 26.7199V28.4832L40.0168 30.0641L39.7726 31.5841L39.4673 33.0434L38.9788 34.5027L38.124 36.3268L37.2081 38.0901L36.109 39.7926L35.1321 40.8871L33.8498 42.1031L32.6287 43.1368L31.4685 43.9881L30.1863 44.8393L28.6598 45.5689L27.3776 46.0554V43.9881L27.7439 43.8056L29.0262 43.1368L30.1863 42.5288L31.4685 41.4951L32.7508 40.4615L34.033 39.1846L34.8268 38.2117L35.6816 36.7524L36.2922 35.7188L36.9028 34.3811L37.3913 33.165L37.8187 31.3409L38.0019 30.1857L38.124 28.4832V27.2063L38.0019 25.3214L37.6966 23.6797L37.4523 22.7068L37.0249 21.3692L36.4143 20.0923L35.6816 18.7546L35.071 17.8426L34.5215 17.1737L33.4224 18.9978L33.9109 19.6667L34.5215 20.6395L35.071 21.8556L35.4374 22.7068L35.8037 23.9837L36.1701 25.3214L36.2922 26.5983V27.2063V28.4832L36.1701 29.6992L35.9259 30.9153L35.6816 31.949L35.3153 33.0434L34.8268 34.1987L34.2162 35.5364L33.4835 36.7524L32.3234 38.0901L31.2854 39.1846L29.6368 40.4615L28.3545 41.3735L26.8891 42.0423L25.4847 42.5288V45.5689V45.6906H25.79L26.1564 46.2378L26.4006 46.7242L26.5838 47.6363L26.4006 48.3659L25.79 49.0955L25.0573 49.4604H24.3246L23.653 49.3388L23.2255 49.0955L22.676 48.6091L22.4318 48.3051L22.3097 47.7579V46.9674L22.676 46.2378L23.0424 45.8122L23.4698 45.5689V27.5103H25.4847V40.4615L26.1564 40.2182L27.6218 39.4278L28.6598 38.8198L29.8199 37.8469L30.7969 36.9349L31.6517 35.8404L32.6897 34.1987L33.4835 32.557L33.8498 31.1585L34.2162 28.7264V26.2942L33.9109 24.8958L33.3614 23.1325L32.7508 21.5516L32.2012 20.6395L31.0411 21.8556L29.881 22.7676L28.5988 23.5581L27.2554 24.3485L25.729 24.8958L24.3857 25.2606L23.8972 23.8621L23.5919 22.5852L23.4698 21.3084V19.7275L23.714 18.2682L24.2025 16.7481L24.6299 15.5928L25.4237 14.316L26.5227 12.8567L27.6829 11.7622L28.6598 11.0326L29.6368 10.4245L30.6137 9.93811L31.4685 9.63409L32.2012 9.45168V11.519L32.0791 11.6406L31.2854 11.9446L30.4305 12.3702L29.7589 12.7351L28.904 13.2215L28.1103 14.0119L27.3776 14.924L26.6449 16.1401L26.0953 17.4169L25.6069 18.8762L25.4237 20.6395L25.6069 22.4636L25.729 22.7676L27.5607 21.8556L29.3315 20.6395L30.6137 19.4235L31.8349 17.8426L32.7508 16.2617L33.4224 14.6808L33.9109 12.8567L34.0941 10.7286V9.14767L33.9109 7.74919L33.7277 7.32356H33.1171L32.2012 7.50597L31.2854 7.74919L30.4305 8.0532L29.0872 8.60043L28.1103 9.14767L26.9502 9.93811L25.9732 10.7286L25.1184 11.519L24.2025 12.6135L23.4698 13.7079L22.676 15.228L22.1875 16.5657L21.8212 17.8426L21.5159 19.5451V53.2302L21.9433 53.5342L22.3097 53.9598L22.5539 54.4463V55.4799L22.3097 56.0271L21.9433 56.4528L21.5159 56.8176L20.9664 57H20.1726L19.8062 56.8176L19.3788 56.6352L18.9514 56.2096L18.585 55.7231L18.4629 55.2367V54.5679L18.585 54.3246L18.8293 53.7774L19.1346 53.3518L19.562 53.0478V19.5451L19.4399 18.6938L19.1346 17.3561L18.6461 15.836L18.0355 14.5592L17.1196 13.0391L16.1427 11.823L15.3489 10.9718L14.1888 9.99891L13.2729 9.26927L12.2349 8.72204L11.2579 8.23561L10.3421 7.87079L9.30405 7.50597L8.08287 7.32356H7.22804V7.50597L6.9838 8.47883V10.2421V12.0662L7.22804 13.2215L7.59439 14.4376L8.08287 15.7144L8.6324 16.7481L9.48723 18.025L10.1589 18.9978L10.8916 19.8491L11.6854 20.5787L12.9065 21.43L13.9445 22.038L14.7383 22.4636L15.3489 22.7068L15.5321 22.2812L15.6542 21.5516V20.7003L15.5321 19.8491L15.3489 18.6938L15.0436 17.4777L14.7383 16.7481L14.0667 15.532L13.395 14.6808L12.5402 13.7687L11.9907 13.2215L11.5632 12.9783L10.5863 12.3094L9.60935 11.823L8.93769 11.519V9.51249L9.60935 9.6949L10.3421 9.99891L11.1358 10.3637L11.9907 10.7894L12.9065 11.3974L13.7003 12.0662L14.5551 12.9783L15.3489 13.8903L15.8984 14.6808L16.6312 16.0793L17.0586 17.1129L17.4249 18.5114L17.547 19.8491V21.5516L17.4249 23.1325L17.0586 24.3485L16.6922 25.1998L16.0816 25.0174L14.7383 24.5309L13.7003 24.1661L12.4181 23.4973L11.1969 22.7068L10.4031 22.038L9.48723 21.2476L8.93769 20.5787L7.89969 22.5852L7.35016 23.8621L7.10592 25.1998L6.86168 26.1118L6.73956 27.5103V28.3616L6.86168 29.3952L6.9838 30.1857L7.15887 31.0977L7.35016 31.7666L7.59439 32.6178L7.89969 33.3474L8.51028 34.3811L9.18193 35.4148L9.85358 36.3268L10.5863 37.1781L11.319 37.9077L12.2349 38.6373L13.1508 39.2454L13.9445 39.7318L14.8604 40.279L15.6542 40.5223V27.5103H17.547L17.6692 45.6297L17.8523 45.8122L18.1576 46.0554L18.524 46.5418L18.7072 47.089V47.7579L18.524 48.3659L18.0355 48.9131L17.547 49.278L16.9975 49.5212H16.2648L15.9595 49.3996L15.471 49.1563L14.9826 48.7307L14.6162 48.0619L14.4941 47.3931L14.6162 46.7242L14.8604 46.2378L15.2878 45.8122L15.6542 45.5081V42.6504L14.9826 42.4072L14.0667 41.9815L13.1508 41.5559L12.2349 41.0695L11.0748 40.279L10.2199 39.5494L9.36511 38.759L8.6324 38.0293L7.77757 36.8741L7.22804 36.0836L6.80062 35.4148L6.31215 34.3811L5.88473 33.3474L5.45732 32.3138L5.15202 31.0977L4.84673 29.76V28.0575V26.7199L4.96885 25.5646L5.15202 24.5309L5.39626 23.4973L5.82368 22.2812L6.12897 21.5516L6.55639 20.5787L7.10592 19.6059L7.59439 18.8762L6.9838 18.025L6.55639 17.1129L5.70156 18.2682L5.15202 19.3626L4.54143 20.5787L3.9919 21.8556L3.6866 22.8892L3.25919 24.5309L2.95389 25.5646V27.5103V29.5776L3.13707 30.9153L3.38131 32.1314L3.62555 33.0434L3.86978 33.7123L4.2972 34.5635L4.66355 35.4148L4.96885 36.0836L5.57944 36.9957L6.06791 37.7861L6.61744 38.5157L7.22804 39.2454L7.89969 39.9142L8.6324 40.6439L9.36511 41.3127L10.0368 41.8599L10.8305 42.4072L11.7464 43.0152L12.7844 43.5624L13.7003 43.9273V46.0554L12.9065 45.8122L11.8685 45.2649L10.8305 44.7177L10.0368 44.2313L9.05981 43.5624L8.20498 43.0152L7.41121 42.2856L6.61744 41.5559L5.88473 40.7655L5.15202 39.9142L4.54143 39.063L3.86978 38.0293L3.25919 36.9957L2.52648 35.5364L1.91589 33.9555L1.48847 32.6178L1.24424 31.4625L1 30.3073V26.1118V25.3822L1.12212 24.5309L1.54953 22.7068L1.97695 21.1259L2.70966 19.4843L3.56449 17.8426L4.35826 16.6265L5.70156 14.924L5.3352 13.8903L5.15202 12.7959L4.96885 11.3974V9.08686L5.15202 7.87079Z" stroke="#396660" stroke-width="0.8"/>
</svg>
